<svg width="347" height="273" viewBox="0 0 347 273" fill="none" xmlns="http://www.w3.org/2000/svg"><path d="M63.252 255.993a46.87 46.87 0 0 0 26.038-7.899 46.843 46.843 0 0 0 17.266-21.039 46.912 46.912 0 0 0 2.669-27.082 46.895 46.895 0 0 0-12.825-24 46.884 46.884 0 0 0-51.081-10.155 46.794 46.794 0 0 0-21.027 17.266 46.803 46.803 0 0 0-7.899 26.038 46.876 46.876 0 0 0 13.723 33.136 46.877 46.877 0 0 0 33.136 13.723v.012zm207.333-230.72a13.4 13.4 0 0 1 9.245-4.113 13.288 13.288 0 0 1 9.464 3.555l.558.558 3.313 3.555a13.046 13.046 0 0 0 12.157 3.907l4.672-.934a13.365 13.365 0 0 1 9.888 2.026 13.325 13.325 0 0 1 5.642 8.372c-.024.267.037.522.182.74l.571 4.841a12.896 12.896 0 0 0 2.402 6.08 13.016 13.016 0 0 0 5.072 4.124l4.258 2.039a13.142 13.142 0 0 1 6.795 7.425 13.144 13.144 0 0 1-.425 10.059c-.206.182-.206.558-.388.74l-2.232 4.077a12.756 12.756 0 0 0-1.687 6.334c0 2.22.583 4.404 1.687 6.333l2.232 4.271a12.946 12.946 0 0 1 1.541 4.902 13.468 13.468 0 0 1-.449 5.108 13.003 13.003 0 0 1-2.39 4.55 13 13 0 0 1-3.931 3.288c-.194.182-.571.182-.753.364l-4.258 2.039a13.01 13.01 0 0 0-5.072 4.125 12.9 12.9 0 0 0-2.402 6.079l-.571 4.841a13.18 13.18 0 0 1-5.035 8.76 13.175 13.175 0 0 1-9.743 2.633 1.203 1.203 0 0 1-.74-.182l-4.684-.934a13.755 13.755 0 0 0-6.54.485 13.875 13.875 0 0 0-5.605 3.422l-3.373 3.543a13.375 13.375 0 0 1-9.234 4.113 13.25 13.25 0 0 1-9.464-3.555l-.57-.558-3.361-3.543a13.08 13.08 0 0 0-5.569-3.555 12.923 12.923 0 0 0-6.589-.352l-4.683.934a13.307 13.307 0 0 1-9.889-2.038 13.354 13.354 0 0 1-5.642-8.384 1.017 1.017 0 0 0-.182-.741l-.558-4.841a13.167 13.167 0 0 0-2.402-6.115 12.913 12.913 0 0 0-5.108-4.077l-4.247-2.038a12.9 12.9 0 0 1-4.15-3.058 13.21 13.21 0 0 1-3.445-9.464 12.945 12.945 0 0 1 1.225-4.999c.182-.182.182-.546.376-.74l2.245-4.27a12.87 12.87 0 0 0 1.674-6.334c0-2.22-.582-4.405-1.674-6.334l-2.245-4.27a13.178 13.178 0 0 1-1.553-4.903 13.28 13.28 0 0 1 .461-5.12 12.971 12.971 0 0 1 2.378-4.55 13.187 13.187 0 0 1 3.944-3.288c.182-.194.558-.194.764-.376l4.247-2.039a12.906 12.906 0 0 0 5.108-4.076 13.038 13.038 0 0 0 2.402-6.116l.558-4.853a13.241 13.241 0 0 1 5.048-8.76 13.178 13.178 0 0 1 4.598-2.281 13.092 13.092 0 0 1 5.133-.34c.267-.037.521.036.74.182l4.683.922c2.196.364 4.441.206 6.552-.485a14.05 14.05 0 0 0 5.618-3.422l3.41-3.312v.024zM17.5 43.474a7.21 7.21 0 0 0 3.993-1.2 7.16 7.16 0 0 0 2.657-3.216 7.042 7.042 0 0 0 .4-4.15 7.003 7.003 0 0 0-1.965-3.676 7.083 7.083 0 0 0-3.677-1.966 7.145 7.145 0 0 0-4.15.413 7.31 7.31 0 0 0-3.227 2.645 7.187 7.187 0 0 0-1.213 3.992c0 1.905.752 3.725 2.087 5.072a7.232 7.232 0 0 0 5.084 2.11v-.023h.012zM333.789 8.232a3.6 3.6 0 0 0 2.014-.607 3.683 3.683 0 0 0 1.334-1.613c.267-.656.34-1.384.207-2.087a3.65 3.65 0 0 0-.983-1.857 3.665 3.665 0 0 0-1.856-.995 3.529 3.529 0 0 0-2.087.207 3.627 3.627 0 0 0-1.626 1.334 3.696 3.696 0 0 0-.607 2.014c0 .474.097.947.279 1.384.17.436.437.837.777 1.176.327.34.728.607 1.164.79.437.181.91.278 1.384.278v-.024zm-62.472 199.804a16.05 16.05 0 0 0 8.942-2.718 16.055 16.055 0 0 0 5.921-7.231 16.083 16.083 0 0 0 .922-9.307 16.13 16.13 0 0 0-4.416-8.238 16.023 16.023 0 0 0-8.239-4.405 16.08 16.08 0 0 0-9.306.923 16.12 16.12 0 0 0-7.22 5.933 16.086 16.086 0 0 0-2.717 8.942c0 2.111.424 4.21 1.225 6.164a16.348 16.348 0 0 0 3.494 5.229 16.339 16.339 0 0 0 5.23 3.495 16.048 16.048 0 0 0 6.164 1.225v-.012z" stroke="#D3E3FD" stroke-width="1.82" stroke-miterlimit="10"/></svg>